<?xml version="1.0" encoding="UTF-8"?><svg id="Layer_1" xmlns="http://www.w3.org/2000/svg" xmlns:xlink="http://www.w3.org/1999/xlink" viewBox="0 0 468.89 335.8"><defs><style>.cls-1,.cls-2,.cls-3,.cls-4,.cls-5{fill:none;}.cls-6,.cls-7,.cls-8{fill:#6fa458;}.cls-6,.cls-9,.cls-10,.cls-11{opacity:.5;}.cls-12{font-size:7px;}.cls-12,.cls-13,.cls-14,.cls-15{fill:#231f20;}.cls-12,.cls-13,.cls-14,.cls-16,.cls-17{font-family:ArialMT, Arial;}.cls-13,.cls-17,.cls-18{font-size:6px;}.cls-14{font-size:6.07px;}.cls-2{opacity:.5;}.cls-2,.cls-3,.cls-8,.cls-19,.cls-20,.cls-21,.cls-22{stroke-miterlimit:10;}.cls-2,.cls-3,.cls-19{stroke:#010101;}.cls-23,.cls-9,.cls-21{fill:#4f499e;}.cls-8,.cls-20,.cls-21,.cls-22{stroke:#231f20;}.cls-19{fill:#fff;stroke-width:.21px;}.cls-4,.cls-5{stroke:#333;stroke-linejoin:round;stroke-width:1.07px;}.cls-20,.cls-10,.cls-24{fill:#fba823;}.cls-5{stroke-linecap:round;}.cls-25{letter-spacing:0em;}.cls-16{font-size:8px;}.cls-16,.cls-17{fill:#010101;}.cls-26,.cls-11,.cls-22{fill:#e01d44;}.cls-27{letter-spacing:-.12em;}.cls-28{letter-spacing:-.12em;}.cls-29{letter-spacing:-.12em;}.cls-30{letter-spacing:-.03em;}.cls-31{letter-spacing:-.02em;}.cls-32{letter-spacing:-.02em;}.cls-33{letter-spacing:-.01em;}.cls-34{letter-spacing:-.02em;}.cls-35{letter-spacing:-.05em;}.cls-36{letter-spacing:-.03em;}.cls-37{letter-spacing:-.03em;}.cls-38{letter-spacing:-.03em;}.cls-39{letter-spacing:-.01em;}.cls-40{letter-spacing:0em;}.cls-41{letter-spacing:0em;}.cls-18{fill:#1a1a1a;font-family:Arial-BoldMT, Arial;font-weight:700;}.cls-42{clip-path:url(#clippath);}.cls-43{letter-spacing:.01em;}.cls-44{letter-spacing:.01em;}.cls-45{letter-spacing:.04em;}.cls-46{letter-spacing:.04em;}.cls-47{letter-spacing:.03em;}</style><clipPath id="clippath"><rect class="cls-1" x="97.14" y="86.92" width="66.38" height="177.9"/></clipPath></defs><rect class="cls-15" x="299.51" y="29.83" width="40.28" height="21.19"/><rect class="cls-19" x="299.51" y="29.83" width="40.28" height="21.19"/><rect class="cls-15" x="299.51" y="72.21" width="40.28" height="21.19"/><rect class="cls-19" x="299.51" y="72.21" width="40.28" height="21.19"/><rect class="cls-15" x="299.51" y="51.02" width="40.28" height="21.19"/><rect class="cls-19" x="299.51" y="51.02" width="40.28" height="21.19"/><rect class="cls-15" x="299.51" y="93.4" width="40.28" height="21.19"/><rect class="cls-19" x="299.51" y="93.4" width="40.28" height="21.19"/><rect class="cls-15" x="420.37" y="29.83" width="40.28" height="21.19"/><rect class="cls-19" x="420.37" y="29.83" width="40.28" height="21.19"/><rect class="cls-15" x="420.37" y="72.21" width="40.28" height="21.19"/><rect class="cls-19" x="420.37" y="72.21" width="40.28" height="21.19"/><rect class="cls-15" x="420.37" y="51.02" width="40.28" height="21.19"/><rect class="cls-19" x="420.37" y="51.02" width="40.28" height="21.19"/><rect class="cls-15" x="420.37" y="93.4" width="40.28" height="21.19"/><rect class="cls-19" x="420.37" y="93.4" width="40.28" height="21.19"/><rect class="cls-15" x="339.8" y="29.83" width="40.28" height="21.19"/><rect class="cls-19" x="339.8" y="29.83" width="40.28" height="21.19"/><rect class="cls-15" x="339.8" y="72.21" width="40.28" height="21.19"/><rect class="cls-19" x="339.8" y="72.21" width="40.28" height="21.19"/><rect class="cls-15" x="339.8" y="51.02" width="40.28" height="21.19"/><rect class="cls-19" x="339.8" y="51.02" width="40.28" height="21.19"/><rect class="cls-15" x="339.8" y="93.4" width="40.28" height="21.19"/><rect class="cls-19" x="339.8" y="93.4" width="40.28" height="21.19"/><rect class="cls-15" x="380.08" y="29.83" width="40.28" height="21.19"/><rect class="cls-19" x="380.08" y="29.83" width="40.28" height="21.19"/><rect class="cls-15" x="380.08" y="72.21" width="40.28" height="21.19"/><rect class="cls-19" x="380.08" y="72.21" width="40.28" height="21.19"/><rect class="cls-15" x="380.08" y="51.02" width="40.28" height="21.19"/><rect class="cls-19" x="380.08" y="51.02" width="40.28" height="21.19"/><rect class="cls-15" x="380.08" y="93.4" width="40.28" height="21.19"/><rect class="cls-19" x="380.08" y="93.4" width="40.28" height="21.19"/><rect class="cls-6" x="299.51" y="29.83" width="40.28" height="21.19"/><rect class="cls-6" x="299.51" y="29.83" width="40.28" height="21.19"/><rect class="cls-9" x="420.37" y="93.4" width="40.28" height="21.19"/><rect class="cls-9" x="420.37" y="93.4" width="40.28" height="21.19"/><rect class="cls-10" x="339.8" y="51.02" width="40.28" height="21.19"/><rect class="cls-10" x="339.8" y="51.02" width="40.28" height="21.19"/><rect class="cls-11" x="380.08" y="72.21" width="40.28" height="21.19"/><rect class="cls-11" x="380.08" y="72.21" width="40.28" height="21.19"/><text class="cls-17" transform="translate(314.65 42.03)"><tspan x="0" y="0">244</tspan></text><text class="cls-17" transform="translate(316.32 84.58)"><tspan x="0" y="0">72</tspan></text><text class="cls-17" transform="translate(316.32 63.39)"><tspan x="0" y="0">26</tspan></text><text class="cls-17" transform="translate(316.32 105.77)"><tspan x="0" y="0">20</tspan></text><text class="cls-17" transform="translate(437.17 42.03)"><tspan x="0" y="0">20</tspan></text><text class="cls-17" transform="translate(437.17 84.58)"><tspan x="0" y="0">30</tspan></text><text class="cls-17" transform="translate(437.17 63.39)"><tspan x="0" y="0">21</tspan></text><text class="cls-17" transform="translate(437.17 105.77)"><tspan x="0" y="0">52</tspan></text><text class="cls-17" transform="translate(356.6 42.03)"><tspan x="0" y="0">26</tspan></text><text class="cls-17" transform="translate(356.6 84.58)"><tspan x="0" y="0">36</tspan></text><text class="cls-17" transform="translate(356.6 63.39)"><tspan x="0" y="0">55</tspan></text><text class="cls-17" transform="translate(356.6 105.77)"><tspan x="0" y="0">21</tspan></text><text class="cls-17" transform="translate(396.89 42.03)"><tspan x="0" y="0">72</tspan></text><text class="cls-17" transform="translate(395.22 84.58)"><tspan x="0" y="0">105</tspan></text><text class="cls-17" transform="translate(396.89 63.39)"><tspan x="0" y="0">36</tspan></text><text class="cls-17" transform="translate(396.89 105.77)"><tspan x="0" y="0">30</tspan></text><rect class="cls-15" x="299.51" y="133.81" width="40.28" height="8.73"/><rect class="cls-19" x="299.51" y="133.81" width="40.28" height="8.73"/><rect class="cls-15" x="299.51" y="142.53" width="40.28" height="8.73"/><rect class="cls-19" x="299.51" y="142.53" width="40.28" height="8.73"/><rect class="cls-15" x="299.51" y="194.88" width="40.28" height="8.73"/><rect class="cls-19" x="299.51" y="194.88" width="40.28" height="8.73"/><rect class="cls-15" x="299.51" y="212.33" width="40.28" height="8.73"/><rect class="cls-19" x="299.51" y="212.33" width="40.28" height="8.73"/><rect class="cls-15" x="299.51" y="151.25" width="40.28" height="8.73"/><rect class="cls-19" x="299.51" y="151.25" width="40.28" height="8.73"/><rect class="cls-15" x="299.51" y="177.43" width="40.28" height="8.73"/><rect class="cls-19" x="299.51" y="177.43" width="40.28" height="8.73"/><rect class="cls-15" x="299.51" y="203.6" width="40.28" height="8.73"/><rect class="cls-19" x="299.51" y="203.6" width="40.28" height="8.73"/><rect class="cls-15" x="299.51" y="168.7" width="40.28" height="8.73"/><rect class="cls-19" x="299.51" y="168.7" width="40.28" height="8.73"/><rect class="cls-15" x="299.51" y="186.15" width="40.28" height="8.73"/><rect class="cls-19" x="299.51" y="186.15" width="40.28" height="8.73"/><rect class="cls-15" x="299.51" y="159.98" width="40.28" height="8.73"/><rect class="cls-19" x="299.51" y="159.98" width="40.28" height="8.73"/><rect class="cls-15" x="420.37" y="133.81" width="40.28" height="8.73"/><rect class="cls-19" x="420.37" y="133.81" width="40.28" height="8.73"/><rect class="cls-15" x="420.37" y="142.53" width="40.28" height="8.73"/><rect class="cls-19" x="420.37" y="142.53" width="40.28" height="8.73"/><rect class="cls-15" x="420.37" y="194.88" width="40.28" height="8.73"/><rect class="cls-19" x="420.37" y="194.88" width="40.28" height="8.73"/><rect class="cls-15" x="420.37" y="212.33" width="40.28" height="8.73"/><rect class="cls-19" x="420.37" y="212.33" width="40.28" height="8.73"/><rect class="cls-15" x="420.37" y="151.25" width="40.28" height="8.73"/><rect class="cls-19" x="420.37" y="151.25" width="40.28" height="8.73"/><rect class="cls-15" x="420.37" y="177.43" width="40.28" height="8.73"/><rect class="cls-19" x="420.37" y="177.43" width="40.28" height="8.73"/><rect class="cls-15" x="420.37" y="203.6" width="40.28" height="8.73"/><rect class="cls-19" x="420.37" y="203.6" width="40.28" height="8.73"/><rect class="cls-15" x="420.37" y="168.7" width="40.28" height="8.73"/><rect class="cls-19" x="420.37" y="168.7" width="40.28" height="8.73"/><rect class="cls-15" x="420.37" y="186.15" width="40.28" height="8.73"/><rect class="cls-19" x="420.37" y="186.15" width="40.28" height="8.73"/><rect class="cls-15" x="420.37" y="159.98" width="40.28" height="8.73"/><rect class="cls-19" x="420.37" y="159.98" width="40.28" height="8.73"/><rect class="cls-15" x="339.8" y="133.81" width="40.28" height="8.73"/><rect class="cls-19" x="339.8" y="133.81" width="40.28" height="8.73"/><rect class="cls-15" x="339.8" y="142.53" width="40.28" height="8.73"/><rect class="cls-19" x="339.8" y="142.53" width="40.28" height="8.73"/><rect class="cls-15" x="339.8" y="194.88" width="40.28" height="8.73"/><rect class="cls-19" x="339.8" y="194.88" width="40.28" height="8.73"/><rect class="cls-15" x="339.8" y="212.33" width="40.28" height="8.73"/><rect class="cls-19" x="339.8" y="212.33" width="40.28" height="8.73"/><rect class="cls-15" x="339.8" y="151.25" width="40.28" height="8.73"/><rect class="cls-19" x="339.8" y="151.25" width="40.28" height="8.73"/><rect class="cls-15" x="339.8" y="177.43" width="40.28" height="8.73"/><rect class="cls-19" x="339.8" y="177.43" width="40.28" height="8.73"/><rect class="cls-15" x="339.8" y="203.6" width="40.28" height="8.73"/><rect class="cls-19" x="339.8" y="203.6" width="40.28" height="8.73"/><rect class="cls-15" x="339.8" y="168.7" width="40.28" height="8.73"/><rect class="cls-19" x="339.8" y="168.7" width="40.28" height="8.73"/><rect class="cls-15" x="339.8" y="186.15" width="40.28" height="8.73"/><rect class="cls-19" x="339.8" y="186.15" width="40.28" height="8.73"/><rect class="cls-15" x="339.8" y="159.98" width="40.28" height="8.73"/><rect class="cls-19" x="339.8" y="159.98" width="40.28" height="8.73"/><rect class="cls-15" x="380.08" y="133.81" width="40.28" height="8.73"/><rect class="cls-19" x="380.08" y="133.81" width="40.28" height="8.73"/><rect class="cls-15" x="380.08" y="142.53" width="40.28" height="8.73"/><rect class="cls-19" x="380.08" y="142.53" width="40.28" height="8.73"/><rect class="cls-15" x="380.08" y="194.88" width="40.28" height="8.73"/><rect class="cls-19" x="380.08" y="194.88" width="40.28" height="8.73"/><rect class="cls-15" x="380.08" y="212.33" width="40.28" height="8.73"/><rect class="cls-19" x="380.08" y="212.33" width="40.28" height="8.73"/><rect class="cls-15" x="380.08" y="151.25" width="40.28" height="8.73"/><rect class="cls-19" x="380.08" y="151.25" width="40.28" height="8.73"/><rect class="cls-15" x="380.08" y="177.43" width="40.28" height="8.73"/><rect class="cls-19" x="380.08" y="177.43" width="40.28" height="8.73"/><rect class="cls-15" x="380.08" y="203.6" width="40.28" height="8.73"/><rect class="cls-19" x="380.08" y="203.6" width="40.28" height="8.73"/><rect class="cls-15" x="380.08" y="168.7" width="40.28" height="8.73"/><rect class="cls-19" x="380.08" y="168.7" width="40.28" height="8.73"/><rect class="cls-15" x="380.08" y="186.15" width="40.28" height="8.73"/><rect class="cls-19" x="380.08" y="186.15" width="40.28" height="8.73"/><rect class="cls-15" x="380.08" y="159.98" width="40.28" height="8.73"/><rect class="cls-19" x="380.08" y="159.98" width="40.28" height="8.73"/><rect class="cls-3" x="299.51" y="133.81" width="40.28" height="8.73"/><rect class="cls-3" x="299.51" y="194.88" width="40.28" height="8.73"/><rect class="cls-3" x="299.51" y="212.33" width="40.28" height="8.73"/><rect class="cls-3" x="299.51" y="203.6" width="40.28" height="8.73"/><rect class="cls-3" x="299.51" y="186.15" width="40.28" height="8.73"/><rect class="cls-3" x="420.37" y="151.25" width="40.28" height="8.73"/><rect class="cls-3" x="420.37" y="159.98" width="40.28" height="8.73"/><rect class="cls-3" x="339.8" y="159.98" width="40.28" height="8.73"/><rect class="cls-3" x="380.08" y="133.81" width="40.28" height="8.73"/><rect class="cls-3" x="380.08" y="151.25" width="40.28" height="8.73"/><rect class="cls-3" x="380.08" y="177.43" width="40.28" height="8.73"/><rect class="cls-3" x="380.08" y="159.98" width="40.28" height="8.73"/><text class="cls-17" transform="translate(314.65 139.94)"><tspan x="0" y="0">176</tspan></text><text class="cls-17" transform="translate(316.32 148.67)"><tspan x="0" y="0">10</tspan></text><text class="cls-17" transform="translate(314.65 201.02)"><tspan x="0" y="0">187</tspan></text><text class="cls-17" transform="translate(314.65 218.29)"><tspan x="0" y="0">225</tspan></text><text class="cls-17" transform="translate(316.32 157.4)"><tspan x="0" y="0">59</tspan></text><text class="cls-17" transform="translate(316.32 183.57)"><tspan x="0" y="0">41</tspan></text><text class="cls-17" transform="translate(316.32 209.74)"><tspan x="0" y="0">84</tspan></text><text class="cls-17" transform="translate(314.65 174.84)"><tspan x="0" y="0">184</tspan></text><text class="cls-17" transform="translate(316.32 192.29)"><tspan x="0" y="0">21</tspan></text><text class="cls-17" transform="translate(316.32 166.12)"><tspan x="0" y="0">59</tspan></text><text class="cls-17" transform="translate(437.17 139.94)"><tspan x="0" y="0">28</tspan></text><text class="cls-17" transform="translate(438.84 148.67)"><tspan x="0" y="0">2</tspan></text><text class="cls-17" transform="translate(437.17 201.02)"><tspan x="0" y="0">32</tspan></text><text class="cls-17" transform="translate(437.17 218.46)"><tspan x="0" y="0">41</tspan></text><text class="cls-17" transform="translate(437.17 157.4)"><tspan x="0" y="0">16</tspan></text><text class="cls-17" transform="translate(437.17 183.57)"><tspan x="0" y="0">10</tspan></text><text class="cls-17" transform="translate(437.17 209.74)"><tspan x="0" y="0">13</tspan></text><text class="cls-17" transform="translate(437.17 174.84)"><tspan x="0" y="0">35</tspan></text><text class="cls-17" transform="translate(438.84 192.29)"><tspan x="0" y="0">7</tspan></text><text class="cls-17" transform="translate(438.84 166.12)"><tspan x="0" y="0">7</tspan></text><text class="cls-17" transform="translate(356.6 139.94)"><tspan x="0" y="0">35</tspan></text><text class="cls-17" transform="translate(358.27 148.67)"><tspan x="0" y="0">0</tspan></text><text class="cls-17" transform="translate(356.6 201.02)"><tspan x="0" y="0">34</tspan></text><text class="cls-17" transform="translate(356.6 218.46)"><tspan x="0" y="0">48</tspan></text><text class="cls-17" transform="translate(356.6 157.4)"><tspan x="0" y="0">13</tspan></text><text class="cls-17" transform="translate(356.6 183.57)"><tspan x="0" y="0">10</tspan></text><text class="cls-17" transform="translate(356.6 209.74)"><tspan x="0" y="0">16</tspan></text><text class="cls-17" transform="translate(356.6 174.84)"><tspan x="0" y="0">37</tspan></text><text class="cls-17" transform="translate(358.27 192.29)"><tspan x="0" y="0">4</tspan></text><text class="cls-17" transform="translate(358.27 166.12)"><tspan x="0" y="0">8</tspan></text><text class="cls-17" transform="translate(396.89 139.94)"><tspan x="0" y="0">76</tspan></text><text class="cls-17" transform="translate(398.56 148.67)"><tspan x="0" y="0">4</tspan></text><text class="cls-17" transform="translate(396.89 201.02)"><tspan x="0" y="0">79</tspan></text><text class="cls-17" transform="translate(396.89 218.46)"><tspan x="0" y="0">93</tspan></text><text class="cls-17" transform="translate(396.89 157.4)"><tspan x="0" y="0">14</tspan></text><text class="cls-17" transform="translate(396.89 183.57)"><tspan x="0" y="0">20</tspan></text><text class="cls-17" transform="translate(396.89 209.74)"><tspan x="0" y="0">34</tspan></text><text class="cls-17" transform="translate(396.89 174.84)"><tspan x="0" y="0">72</tspan></text><text class="cls-17" transform="translate(398.56 192.29)"><tspan x="0" y="0">4</tspan></text><text class="cls-17" transform="translate(396.89 166.12)"><tspan x="0" y="0">15</tspan></text><rect class="cls-15" x="299.51" y="296.55" width="40.28" height="27.81"/><rect class="cls-19" x="299.51" y="296.55" width="40.28" height="27.81"/><rect class="cls-15" x="299.51" y="268.74" width="40.28" height="27.81"/><rect class="cls-19" x="299.51" y="268.74" width="40.28" height="27.81"/><rect class="cls-15" x="299.51" y="240.93" width="40.28" height="27.81"/><rect class="cls-19" x="299.51" y="240.93" width="40.28" height="27.81"/><rect class="cls-15" x="420.37" y="296.55" width="40.28" height="27.81"/><rect class="cls-19" x="420.37" y="296.55" width="40.28" height="27.81"/><rect class="cls-15" x="420.37" y="268.74" width="40.28" height="27.81"/><rect class="cls-19" x="420.37" y="268.74" width="40.28" height="27.81"/><rect class="cls-15" x="420.37" y="240.93" width="40.28" height="27.81"/><rect class="cls-19" x="420.37" y="240.93" width="40.28" height="27.81"/><rect class="cls-15" x="339.8" y="296.55" width="40.28" height="27.81"/><rect class="cls-19" x="339.8" y="296.55" width="40.28" height="27.81"/><rect class="cls-15" x="339.8" y="268.74" width="40.28" height="27.81"/><rect class="cls-19" x="339.8" y="268.74" width="40.28" height="27.81"/><rect class="cls-15" x="339.8" y="240.93" width="40.28" height="27.81"/><rect class="cls-19" x="339.8" y="240.93" width="40.28" height="27.81"/><rect class="cls-15" x="380.08" y="296.55" width="40.28" height="27.81"/><rect class="cls-19" x="380.08" y="296.55" width="40.28" height="27.81"/><rect class="cls-15" x="380.08" y="268.74" width="40.28" height="27.81"/><rect class="cls-19" x="380.08" y="268.74" width="40.28" height="27.81"/><rect class="cls-15" x="380.08" y="240.93" width="40.28" height="27.81"/><rect class="cls-19" x="380.08" y="240.93" width="40.28" height="27.81"/><rect class="cls-3" x="299.51" y="240.93" width="40.28" height="27.81"/><text class="cls-17" transform="translate(312.15 312.24)"><tspan x="0" y="0">0.848</tspan></text><text class="cls-17" transform="translate(313.82 284.43)"><tspan x="0" y="0">0.59</tspan></text><text class="cls-17" transform="translate(310.48 256.62)"><tspan x="0" y="0">13.898</tspan></text><text class="cls-17" transform="translate(433 312.24)"><tspan x="0" y="0">0.519</tspan></text><text class="cls-17" transform="translate(433 284.43)"><tspan x="0" y="0">0.365</tspan></text><text class="cls-17" transform="translate(431.33 256.62)"><tspan x="0" y="0">10.212</tspan></text><text class="cls-17" transform="translate(352.43 312.24)"><tspan x="0" y="0">0.855</tspan></text><text class="cls-17" transform="translate(352.43 284.43)"><tspan x="0" y="0">0.491</tspan></text><text class="cls-17" transform="translate(350.76 256.62)"><tspan x="0" y="0">13.291</tspan></text><text class="cls-17" transform="translate(392.72 312.24)"><tspan x="0" y="0">0.533</tspan></text><text class="cls-17" transform="translate(396.05 284.43)"><tspan x="0" y="0">0.4</tspan></text><text class="cls-17" transform="translate(391.05 256.62)"><tspan x="0" y="0">12.933</tspan></text><text class="cls-18" transform="translate(348.57 237.74)"><tspan x="0" y="0">Mean Gene Count / MAG</tspan></text><text class="cls-18" transform="translate(335.72 130.52)"><tspan x="0" y="0">Active MAGs Functional </tspan><tspan class="cls-35" x="70.68" y="0">P</tspan><tspan x="74.38" y="0">otential</tspan></text><text class="cls-18" transform="translate(329.06 25.3)"><tspan x="0" y="0">Acti</tspan><tspan class="cls-30" x="11.33" y="0">v</tspan><tspan x="14.52" y="0">e MAGs in Each Red</tspan><tspan class="cls-36" x="72.87" y="0">o</tspan><tspan x="76.35" y="0">x Condition</tspan></text><text class="cls-13" transform="translate(310.75 332.27)"><tspan x="0" y="0">An</tspan><tspan class="cls-36" x="7.34" y="0">o</tspan><tspan x="10.5" y="0">xic</tspan></text><text class="cls-13" transform="translate(346.65 332.27)"><tspan x="0" y="0">L</tspan><tspan class="cls-33" x="3.34" y="0">o</tspan><tspan x="6.58" y="0">w Freq.</tspan></text><text class="cls-13" transform="translate(386.22 332.27)"><tspan x="0" y="0">High Freq.</tspan></text><text class="cls-13" transform="translate(434.51 332.27)"><tspan x="0" y="0">Oxic</tspan></text><text class="cls-13" transform="translate(310.75 228.05)"><tspan x="0" y="0">An</tspan><tspan class="cls-36" x="7.34" y="0">o</tspan><tspan x="10.5" y="0">xic</tspan></text><text class="cls-13" transform="translate(346.65 228.05)"><tspan x="0" y="0">L</tspan><tspan class="cls-33" x="3.34" y="0">o</tspan><tspan x="6.58" y="0">w Freq.</tspan></text><text class="cls-13" transform="translate(386.22 228.05)"><tspan x="0" y="0">High Freq.</tspan></text><text class="cls-13" transform="translate(434.51 228.05)"><tspan x="0" y="0">Oxic</tspan></text><text class="cls-13" transform="translate(310.75 121.83)"><tspan x="0" y="0">An</tspan><tspan class="cls-36" x="7.34" y="0">o</tspan><tspan x="10.5" y="0">xic</tspan></text><text class="cls-13" transform="translate(346.65 121.83)"><tspan x="0" y="0">L</tspan><tspan class="cls-33" x="3.34" y="0">o</tspan><tspan x="6.58" y="0">w Freq.</tspan></text><text class="cls-13" transform="translate(386.22 121.83)"><tspan x="0" y="0">High Freq.</tspan></text><text class="cls-13" transform="translate(434.51 121.83)"><tspan x="0" y="0">Oxic</tspan></text><text class="cls-13" transform="translate(284.75 105.45)"><tspan x="0" y="0">Oxic</tspan></text><text class="cls-13" transform="translate(268.74 84.26)"><tspan x="0" y="0">High Freq.</tspan></text><text class="cls-13" transform="translate(270.16 63.07)"><tspan x="0" y="0">L</tspan><tspan class="cls-33" x="3.34" y="0">o</tspan><tspan x="6.58" y="0">w Freq.</tspan></text><text class="cls-13" transform="translate(278.92 41.51)"><tspan x="0" y="0">An</tspan><tspan class="cls-36" x="7.34" y="0">o</tspan><tspan x="10.5" y="0">xic</tspan></text><text class="cls-13" transform="translate(233.1 218.15)"><tspan x="0" y="0">Py</tspan><tspan class="cls-44" x="7" y="0">r</tspan><tspan x="9.08" y="0">u</tspan><tspan class="cls-32" x="12.42" y="0">v</tspan><tspan x="15.28" y="0">ate =&gt; Acetyl CoA</tspan></text><text class="cls-13" transform="translate(250.39 209.42)"><tspan x="0" y="0">Lactate utilization</tspan></text><text class="cls-13" transform="translate(249.72 200.69)"><tspan x="0" y="0">Acetate utilization</tspan></text><text class="cls-13" transform="translate(241.05 191.97)"><tspan x="0" y="0">Propionate utilization</tspan></text><text class="cls-13" transform="translate(247.79 183.24)"><tspan x="0" y="0">Buty</tspan><tspan class="cls-40" x="12.01" y="0">r</tspan><tspan x="13.94" y="0">ate utilization</tspan></text><text class="cls-13" transform="translate(241.73 174.52)"><tspan x="0" y="0">Nitrogen metabolism</tspan></text><text class="cls-13" transform="translate(248.73 165.8)"><tspan x="0" y="0">Sulfur metabolism</tspan></text><text class="cls-13" transform="translate(246.39 157.07)"><tspan x="0" y="0">Arsenate reduction</tspan></text><text class="cls-13" transform="translate(248.56 148.35)"><tspan x="0" y="0">Mercu</tspan><tspan class="cls-47" x="16.67" y="0">r</tspan><tspan x="18.84" y="0">y reduction</tspan></text><text class="cls-13" transform="translate(219.26 134.62)"><tspan x="0" y="0">Full Electron </tspan><tspan class="cls-28" x="35.01" y="0">T</tspan><tspan class="cls-39" x="37.96" y="0">r</tspan><tspan x="39.9" y="0">anspo</tspan><tspan class="cls-45" x="56.25" y="0">r</tspan><tspan x="58.48" y="0">t Chain</tspan><tspan x="4.4" y="6">(Compl</tspan><tspan class="cls-36" x="23.73" y="6">e</tspan><tspan x="26.89" y="6">x I, II, III, I</tspan><tspan class="cls-29" x="53.23" y="6">V</tspan><tspan x="56.48" y="6">, and V)</tspan></text><text class="cls-13" transform="translate(260.91 311.91)"><tspan x="0" y="0">Iron </tspan><tspan class="cls-36" x="12.01" y="0">o</tspan><tspan x="15.16" y="0">xidation</tspan></text><text class="cls-13" transform="translate(260.06 284.1)"><tspan x="0" y="0">Iron reduction</tspan></text><text class="cls-13" transform="translate(221.04 256.29)"><tspan x="0" y="0">Iron aquisition (Siderophore)</tspan></text><rect class="cls-6" x="129.59" y="6.75" width="11.47" height="11.48"/><rect class="cls-2" x="129.59" y="6.75" width="11.47" height="11.48"/><rect class="cls-10" x="129.59" y="18.41" width="11.47" height="11.48"/><rect class="cls-2" x="129.59" y="18.41" width="11.47" height="11.48"/><rect class="cls-11" x="129.59" y="30.08" width="11.47" height="11.47"/><rect class="cls-2" x="129.59" y="30.08" width="11.47" height="11.47"/><rect class="cls-9" x="129.59" y="41.74" width="11.47" height="11.48"/><rect class="cls-2" x="129.59" y="41.74" width="11.47" height="11.48"/><text class="cls-14" transform="translate(144.86 14.67)"><tspan x="0" y="0">An</tspan><tspan class="cls-38" x="7.43" y="0">o</tspan><tspan x="10.63" y="0">xic</tspan></text><text class="cls-14" transform="translate(144.86 26.33)"><tspan x="0" y="0">L</tspan><tspan class="cls-34" x="3.38" y="0">o</tspan><tspan class="cls-25" x="6.67" y="0">w Freq.</tspan></text><text class="cls-14" transform="translate(144.86 38)"><tspan x="0" y="0">High Freq.</tspan></text><text class="cls-14" transform="translate(144.86 49.66)"><tspan x="0" y="0">Oxic</tspan></text><g class="cls-42"><rect class="cls-8" x="100.16" y="156.54" width="39.18" height="6.77"/><rect class="cls-8" x="100.16" y="188.44" width="35.68" height="13.54"/><rect class="cls-8" x="100.16" y="246.45" width="25.41" height="13.54"/><rect class="cls-8" x="100.16" y="91.76" width="60.34" height="13.54"/><rect class="cls-8" x="100.16" y="207.78" width="30.36" height="13.54"/><rect class="cls-8" x="100.16" y="130.43" width="41.81" height="13.54"/><rect class="cls-21" x="100.16" y="169.1" width="37.81" height="4.51"/><rect class="cls-20" x="100.16" y="178.13" width="43.86" height="4.51"/><rect class="cls-22" x="100.16" y="149.77" width="40.7" height="6.77"/><rect class="cls-22" x="100.16" y="227.11" width="28.62" height="13.54"/><rect class="cls-22" x="100.16" y="111.09" width="47.28" height="13.54"/><rect class="cls-22" x="100.16" y="173.62" width="35.98" height="4.51"/><rect class="cls-5" x="97.14" y="86.92" width="66.38" height="177.9"/></g><text class="cls-12" transform="translate(40.2 253.77)"><tspan x="0" y="0">Acetate utilization</tspan></text><text class="cls-12" transform="translate(37.94 234.43)"><tspan x="0" y="0">Buty</tspan><tspan class="cls-41" x="14.01" y="0">r</tspan><tspan x="16.27" y="0">ate utilization</tspan></text><text class="cls-12" transform="translate(20.81 215.09)"><tspan x="0" y="0">Py</tspan><tspan class="cls-43" x="8.17" y="0">r</tspan><tspan x="10.6" y="0">u</tspan><tspan class="cls-31" x="14.49" y="0">v</tspan><tspan x="17.82" y="0">ate =&gt; Acetyl CoA</tspan></text><text class="cls-12" transform="translate(30.08 195.76)"><tspan x="0" y="0">Propionate utilization</tspan></text><text class="cls-12" transform="translate(39.05 176.42)"><tspan x="0" y="0">Sulfur metabolism</tspan></text><text class="cls-12" transform="translate(6.74 137.75)"><tspan x="0" y="0">Iron aquisition (Siderophore)</tspan></text><text class="cls-12" transform="translate(36.31 118.41)"><tspan x="0" y="0">Arsenate reduction</tspan></text><text class="cls-12" transform="translate(40.98 99.08)"><tspan x="0" y="0">Lactate utilization</tspan></text><line class="cls-4" x1="96.67" y1="253.22" x2="97.14" y2="253.22"/><line class="cls-4" x1="96.67" y1="233.88" x2="97.14" y2="233.88"/><line class="cls-4" x1="96.67" y1="214.54" x2="97.14" y2="214.54"/><line class="cls-4" x1="96.67" y1="195.21" x2="97.14" y2="195.21"/><line class="cls-4" x1="96.67" y1="175.87" x2="97.14" y2="175.87"/><line class="cls-4" x1="96.67" y1="156.54" x2="97.14" y2="156.54"/><line class="cls-4" x1="96.67" y1="137.2" x2="97.14" y2="137.2"/><line class="cls-4" x1="96.67" y1="117.86" x2="97.14" y2="117.86"/><line class="cls-4" x1="96.67" y1="98.53" x2="97.14" y2="98.53"/><line class="cls-4" x1="100.16" y1="265.29" x2="100.16" y2="264.82"/><line class="cls-4" x1="116.51" y1="265.29" x2="116.51" y2="264.82"/><line class="cls-4" x1="132.87" y1="265.29" x2="132.87" y2="264.82"/><line class="cls-4" x1="149.22" y1="265.29" x2="149.22" y2="264.82"/><text class="cls-12" transform="translate(97.09 272.91)"><tspan x="0" y="0">0.0</tspan></text><text class="cls-12" transform="translate(113.44 272.91)"><tspan x="0" y="0">2.5</tspan></text><text class="cls-12" transform="translate(129.8 272.91)"><tspan x="0" y="0">5.0</tspan></text><text class="cls-12" transform="translate(146.16 272.91)"><tspan x="0" y="0">7.5</tspan></text><text class="cls-16" transform="translate(78.08 285.26)"><tspan x="0" y="0">Likelihood-Ratio Chi-Squared</tspan></text><text class="cls-12" transform="translate(4.66 155.8)"><tspan x="0" y="0">Full Electron </tspan><tspan class="cls-27" x="40.85" y="0">T</tspan><tspan class="cls-41" x="44.29" y="0">r</tspan><tspan x="46.55" y="0">anspo</tspan><tspan class="cls-46" x="65.62" y="0">r</tspan><tspan x="68.23" y="0">t Chain</tspan><tspan x="5.13" y="5.6">(Compl</tspan><tspan class="cls-37" x="27.69" y="5.6">e</tspan><tspan x="31.37" y="5.6">x I, II, III, I</tspan><tspan class="cls-29" x="62.1" y="5.6">V</tspan><tspan x="65.89" y="5.6">, and V)</tspan></text><rect class="cls-7" x="116.43" y="6.81" width="11.47" height="11.48"/><rect class="cls-3" x="116.43" y="6.81" width="11.47" height="11.48"/><rect class="cls-24" x="116.43" y="18.47" width="11.47" height="11.47"/><rect class="cls-3" x="116.43" y="18.47" width="11.47" height="11.47"/><rect class="cls-26" x="116.43" y="30.14" width="11.47" height="11.47"/><rect class="cls-3" x="116.43" y="30.14" width="11.47" height="11.47"/><rect class="cls-23" x="116.43" y="41.8" width="11.47" height="11.48"/><rect class="cls-3" x="116.43" y="41.8" width="11.47" height="11.48"/></svg>